ffmpeg started on 2025-06-19 at 11:05:56
Report written to "D:\Convert\FFMetrics\reports\ssim_report-6.txt"
Log level: 32
Command line:
ffmpeg -hide_banner -nostdin -i "G:\\\xc0\xed\xe8\xec\xe5\\[\xd2\xee\xef-4]\\RErideD - \xc4\xe5\xf0\xf0\xe8\xe4\xe0, \xef\xee\xea\xee\xf0\xe8\xe2\xf8\xe8\xe9 \xe2\xf0\xe5\xec\xff\\RErideD_Koku_Koe_no_Derrida_[12]_[AniLibria_TV]_[WEBRip_720p]_HEVC.mkv" -i "G:\\\xc0\xed\xe8\xec\xe5\\[\xd2\xee\xef-4]\\RErideD - \xc4\xe5\xf0\xf0\xe8\xe4\xe0, \xef\xee\xea\xee\xf0\xe8\xe2\xf8\xe8\xe9 \xe2\xf0\xe5\xec\xff\\RErideD_Koku_Koe_no_Derrida_[12]_[AniLibria_TV]_[WEBRip_720p].mkv" -lavfi "[0:v]settb=AVTB,setpts=PTS-STARTPTS,format=pix_fmts=yuv420p10,fps=24000/1001,scale=1280:720:flags=bicubic[main];[1:v]settb=AVTB,setpts=PTS-STARTPTS,format=pix_fmts=yuv420p,fps=24000/1001,scale=1280:720:flags=bicubic[ref];[main][ref]ssim=eof_action=endall:stats_file='D\\:/Convert/FFMetrics/logs/ssim_logfile-6.txt'" -f null -
Input #0, matroska,webm, from 'G:\Аниме\[Топ-4]\RErideD - Деррида, покоривший время\RErideD_Koku_Koe_no_Derrida_[12]_[AniLibria_TV]_[WEBRip_720p]_HEVC.mkv':
  Metadata:
    ENCODER         : Lavf61.7.100
  Duration: 00:23:40.17, start: -0.021000, bitrate: 739 kb/s
  Stream #0:0(jpn): Video: hevc (Main 10), yuv420p10le(tv, bt709, progressive), 1280x720 [SAR 1:1 DAR 16:9], 23.98 fps, 23.98 tbr, 1k tbn (default)
      Metadata:
        ENCODER         : Lavc61.19.100 libx265
        BPS             : 540540
        DURATION        : 00:23:40.085708333
        NUMBER_OF_FRAMES: 34048
        NUMBER_OF_BYTES : 95951737
        _STATISTICS_WRITING_APP: mkvpropedit v66.0.0 ('Josie') 64-bit
        _STATISTICS_WRITING_DATE_UTC: 2025-06-17 16:38:24
        _STATISTICS_TAGS: BPS DURATION NUMBER_OF_FRAMES NUMBER_OF_BYTES
  Stream #0:1(rus): Audio: aac (LC), 48000 Hz, stereo, fltp (default) (forced)
      Metadata:
        title           : AniLibria.TV
        ENCODER         : Lavc61.19.100 aac
        BPS             : 194492
        DURATION        : 00:23:40.117000000
        NUMBER_OF_FRAMES: 66569
        NUMBER_OF_BYTES : 34525236
        _STATISTICS_WRITING_APP: mkvpropedit v66.0.0 ('Josie') 64-bit
        _STATISTICS_WRITING_DATE_UTC: 2025-06-17 16:38:24
        _STATISTICS_TAGS: BPS DURATION NUMBER_OF_FRAMES NUMBER_OF_BYTES
  Stream #0:2(rus): Subtitle: ass (ssa) (default)
      Metadata:
        title           : Надписи
        BPS             : 127
        DURATION        : 00:01:18.640000000
        NUMBER_OF_FRAMES: 11
        NUMBER_OF_BYTES : 1256
        _STATISTICS_WRITING_APP: mkvpropedit v66.0.0 ('Josie') 64-bit
        _STATISTICS_WRITING_DATE_UTC: 2025-06-17 16:38:24
        _STATISTICS_TAGS: BPS DURATION NUMBER_OF_FRAMES NUMBER_OF_BYTES
  Stream #0:3(rus): Subtitle: ass (ssa)
      Metadata:
        title           : Полные субтитры
        BPS             : 140
        DURATION        : 00:23:28.480000000
        NUMBER_OF_FRAMES: 328
        NUMBER_OF_BYTES : 24821
        _STATISTICS_WRITING_APP: mkvpropedit v66.0.0 ('Josie') 64-bit
        _STATISTICS_WRITING_DATE_UTC: 2025-06-17 16:38:24
        _STATISTICS_TAGS: BPS DURATION NUMBER_OF_FRAMES NUMBER_OF_BYTES
Input #1, matroska,webm, from 'G:\Аниме\[Топ-4]\RErideD - Деррида, покоривший время\RErideD_Koku_Koe_no_Derrida_[12]_[AniLibria_TV]_[WEBRip_720p].mkv':
  Metadata:
    encoder         : libebml v1.4.2 + libmatroska v1.6.4
    creation_time   : 2024-12-15T11:01:49.000000Z
  Duration: 00:23:40.17, start: 0.000000, bitrate: 2044 kb/s
  Stream #1:0(jpn): Video: h264 (High), yuv420p(progressive), 1280x720 [SAR 1:1 DAR 16:9], 23.98 fps, 23.98 tbr, 1k tbn (default)
      Metadata:
        BPS             : 1843902
        DURATION        : 00:23:40.087000000
        NUMBER_OF_FRAMES: 34048
        NUMBER_OF_BYTES : 327312736
        _STATISTICS_WRITING_APP: mkvmerge v66.0.0 ('Josie') 64-bit
        _STATISTICS_WRITING_DATE_UTC: 2024-12-15 11:01:49
        _STATISTICS_TAGS: BPS DURATION NUMBER_OF_FRAMES NUMBER_OF_BYTES
  Stream #1:1(rus): Audio: aac (LC), 48000 Hz, stereo, fltp (default) (forced)
      Metadata:
        title           : AniLibria.TV
        BPS             : 195517
        DURATION        : 00:23:40.117000000
        NUMBER_OF_FRAMES: 66568
        NUMBER_OF_BYTES : 34707135
        _STATISTICS_WRITING_APP: mkvmerge v66.0.0 ('Josie') 64-bit
        _STATISTICS_WRITING_DATE_UTC: 2024-12-15 11:01:49
        _STATISTICS_TAGS: BPS DURATION NUMBER_OF_FRAMES NUMBER_OF_BYTES
  Stream #1:2(rus): Subtitle: ass (ssa) (default)
      Metadata:
        title           : Надписи
        BPS             : 127
        DURATION        : 00:01:18.640000000
        NUMBER_OF_FRAMES: 11
        NUMBER_OF_BYTES : 1256
        _STATISTICS_WRITING_APP: mkvmerge v66.0.0 ('Josie') 64-bit
        _STATISTICS_WRITING_DATE_UTC: 2024-12-15 11:01:49
        _STATISTICS_TAGS: BPS DURATION NUMBER_OF_FRAMES NUMBER_OF_BYTES
  Stream #1:3(rus): Subtitle: ass (ssa)
      Metadata:
        title           : Полные субтитры
        BPS             : 140
        DURATION        : 00:23:28.480000000
        NUMBER_OF_FRAMES: 328
        NUMBER_OF_BYTES : 24821
        _STATISTICS_WRITING_APP: mkvmerge v66.0.0 ('Josie') 64-bit
        _STATISTICS_WRITING_DATE_UTC: 2024-12-15 11:01:49
        _STATISTICS_TAGS: BPS DURATION NUMBER_OF_FRAMES NUMBER_OF_BYTES
  Stream #1:4: Attachment: ttf
      Metadata:
        filename        : OpenSans-Semibold.ttf
        mimetype        : application/x-truetype-font
  Stream #1:5: Attachment: ttf
      Metadata:
        filename        : v_MightyZeo2.0_v1.07.ttf
        mimetype        : application/x-truetype-font
  Stream #1:6: Attachment: ttf
      Metadata:
        filename        : OpenSans-Semibold.ttf
        mimetype        : application/x-truetype-font
Stream mapping:
  Stream #0:0 (hevc) -> settb:default
  Stream #1:0 (h264) -> settb:default
  ssim:default -> Stream #0:0 (wrapped_avframe)
  Stream #0:1 -> #0:1 (aac (native) -> pcm_s16le (native))
[swscaler @ 000002d5a3563dc0] No accelerated colorspace conversion found from yuv420p to bgr48le.
[swscaler @ 000002d5a376ff40] No accelerated colorspace conversion found from yuv420p to bgr48le.
[swscaler @ 000002d5a3846c40] No accelerated colorspace conversion found from yuv420p to bgr48le.
[swscaler @ 000002d5a39ada00] No accelerated colorspace conversion found from yuv420p to bgr48le.
[swscaler @ 000002d5a3af6e40] No accelerated colorspace conversion found from yuv420p to bgr48le.
[swscaler @ 000002d5a3b92040] No accelerated colorspace conversion found from yuv420p to bgr48le.
[swscaler @ 000002d5a3bae000] No accelerated colorspace conversion found from yuv420p to bgr48le.
[swscaler @ 000002d5a3c2cf80] No accelerated colorspace conversion found from yuv420p to bgr48le.
[swscaler @ 000002d5a3c88040] No accelerated colorspace conversion found from yuv420p to bgr48le.
[swscaler @ 000002d5a3d0d040] No accelerated colorspace conversion found from yuv420p to bgr48le.
[swscaler @ 000002d5a78700c0] No accelerated colorspace conversion found from yuv420p to bgr48le.
[swscaler @ 000002d5a78cc040] No accelerated colorspace conversion found from yuv420p to bgr48le.
[swscaler @ 000002d5a7939840] No accelerated colorspace conversion found from yuv420p to bgr48le.
[swscaler @ 000002d5a79c4040] No accelerated colorspace conversion found from yuv420p to bgr48le.
[swscaler @ 000002d5a7a37040] No accelerated colorspace conversion found from yuv420p to bgr48le.
[swscaler @ 000002d5a7a94040] No accelerated colorspace conversion found from yuv420p to bgr48le.
Output #0, null, to 'pipe:':
  Metadata:
    encoder         : Lavf61.7.100
  Stream #0:0: Video: wrapped_avframe, yuv420p10le(tv, bt709, progressive), 1280x720 [SAR 1:1 DAR 16:9], q=2-31, 200 kb/s, 23.98 fps, 23.98 tbn
      Metadata:
        encoder         : Lavc61.19.100 wrapped_avframe
  Stream #0:1(rus): Audio: pcm_s16le, 48000 Hz, stereo, s16, 1536 kb/s (default) (forced)
      Metadata:
        title           : AniLibria.TV
        _STATISTICS_TAGS: BPS DURATION NUMBER_OF_FRAMES NUMBER_OF_BYTES
        BPS             : 194492
        DURATION        : 00:23:40.117000000
        NUMBER_OF_FRAMES: 66569
        NUMBER_OF_BYTES : 34525236
        _STATISTICS_WRITING_APP: mkvpropedit v66.0.0 ('Josie') 64-bit
        _STATISTICS_WRITING_DATE_UTC: 2025-06-17 16:38:24
        encoder         : Lavc61.19.100 pcm_s16le
frame=   80 fps=0.0 q=-0.0 size=N/A time=00:00:03.33 bitrate=N/A speed=6.56x    frame=  168 fps=162 q=-0.0 size=N/A time=00:00:07.00 bitrate=N/A speed=6.77x    frame=  272 fps=176 q=-0.0 size=N/A time=00:00:11.34 bitrate=N/A speed=7.34x    frame=  367 fps=179 q=-0.0 size=N/A time=00:00:15.30 bitrate=N/A speed=7.45x    frame=  460 fps=178 q=-0.0 size=N/A time=00:00:19.18 bitrate=N/A speed=7.44x    frame=  555 fps=180 q=-0.0 size=N/A time=00:00:23.14 bitrate=N/A speed= 7.5x    frame=  648 fps=180 q=-0.0 size=N/A time=00:00:27.02 bitrate=N/A speed=7.49x    frame=  750 fps=182 q=-0.0 size=N/A time=00:00:31.28 bitrate=N/A speed=7.59x    frame=  838 fps=181 q=-0.0 size=N/A time=00:00:34.95 bitrate=N/A speed=7.54x    frame=  937 fps=182 q=-0.0 size=N/A time=00:00:39.08 bitrate=N/A speed=7.59x    frame= 1043 fps=184 q=-0.0 size=N/A time=00:00:43.50 bitrate=N/A speed=7.67x    frame= 1131 fps=183 q=-0.0 size=N/A time=00:00:47.17 bitrate=N/A speed=7.63x    frame= 1229 fps=183 q=-0.0 size=N/A time=00:00:51.25 bitrate=N/A speed=7.65x    frame= 1323 fps=183 q=-0.0 size=N/A time=00:00:55.18 bitrate=N/A speed=7.65x    frame= 1415 fps=183 q=-0.0 size=N/A time=00:00:59.01 bitrate=N/A speed=7.64x    frame= 1515 fps=184 q=-0.0 size=N/A time=00:01:03.18 bitrate=N/A speed=7.66x    frame= 1609 fps=184 q=-0.0 size=N/A time=00:01:07.10 bitrate=N/A speed=7.66x    frame= 1698 fps=183 q=-0.0 size=N/A time=00:01:10.82 bitrate=N/A speed=7.64x    frame= 1794 fps=183 q=-0.0 size=N/A time=00:01:14.82 bitrate=N/A speed=7.64x    frame= 1891 fps=183 q=-0.0 size=N/A time=00:01:18.87 bitrate=N/A speed=7.65x    frame= 1988 fps=184 q=-0.0 size=N/A time=00:01:22.91 bitrate=N/A speed=7.65x    frame= 2081 fps=184 q=-0.0 size=N/A time=00:01:26.79 bitrate=N/A speed=7.65x    frame= 2174 fps=183 q=-0.0 size=N/A time=00:01:30.67 bitrate=N/A speed=7.65x    frame= 2271 fps=184 q=-0.0 size=N/A time=00:01:34.71 bitrate=N/A speed=7.65x    frame= 2365 fps=184 q=-0.0 size=N/A time=00:01:38.64 bitrate=N/A speed=7.66x    frame= 2458 fps=184 q=-0.0 size=N/A time=00:01:42.51 bitrate=N/A speed=7.65x    frame= 2555 fps=184 q=-0.0 size=N/A time=00:01:46.56 bitrate=N/A speed=7.66x    frame= 2651 fps=184 q=-0.0 size=N/A time=00:01:50.56 bitrate=N/A speed=7.66x    frame= 2748 fps=184 q=-0.0 size=N/A time=00:01:54.61 bitrate=N/A speed=7.66x    frame= 2844 fps=184 q=-0.0 size=N/A time=00:01:58.61 bitrate=N/A speed=7.67x    frame= 2938 fps=184 q=-0.0 size=N/A time=00:02:02.53 bitrate=N/A speed=7.67x    frame= 3035 fps=184 q=-0.0 size=N/A time=00:02:06.58 bitrate=N/A speed=7.67x    frame= 3133 fps=184 q=-0.0 size=N/A time=00:02:10.67 bitrate=N/A speed=7.68x    frame= 3229 fps=184 q=-0.0 size=N/A time=00:02:14.67 bitrate=N/A speed=7.69x    frame= 3331 fps=185 q=-0.0 size=N/A time=00:02:18.93 bitrate=N/A speed= 7.7x    frame= 3429 fps=185 q=-0.0 size=N/A time=00:02:23.01 bitrate=N/A speed=7.71x    frame= 3515 fps=184 q=-0.0 size=N/A time=00:02:26.60 bitrate=N/A speed=7.69x    frame= 3627 fps=185 q=-0.0 size=N/A time=00:02:31.27 bitrate=N/A speed=7.72x    frame= 3723 fps=185 q=-0.0 size=N/A time=00:02:35.28 bitrate=N/A speed=7.72x    frame= 3821 fps=185 q=-0.0 size=N/A time=00:02:39.36 bitrate=N/A speed=7.73x    frame= 3913 fps=185 q=-0.0 size=N/A time=00:02:43.20 bitrate=N/A speed=7.72x    frame= 4016 fps=185 q=-0.0 size=N/A time=00:02:47.50 bitrate=N/A speed=7.74x    frame= 4106 fps=185 q=-0.0 size=N/A time=00:02:51.25 bitrate=N/A speed=7.73x    frame= 4214 fps=186 q=-0.0 size=N/A time=00:02:55.75 bitrate=N/A speed=7.75x    frame= 4318 fps=186 q=-0.0 size=N/A time=00:03:00.09 bitrate=N/A speed=7.76x    frame= 4404 fps=186 q=-0.0 size=N/A time=00:03:03.68 bitrate=N/A speed=7.75x    frame= 4512 fps=186 q=-0.0 size=N/A time=00:03:08.18 bitrate=N/A speed=7.77x    frame= 4605 fps=186 q=-0.0 size=N/A time=00:03:12.06 bitrate=N/A speed=7.76x    frame= 4705 fps=186 q=-0.0 size=N/A time=00:03:16.23 bitrate=N/A speed=7.77x    frame= 4813 fps=187 q=-0.0 size=N/A time=00:03:20.74 bitrate=N/A speed=7.78x    frame= 4909 fps=187 q=-0.0 size=N/A time=00:03:24.74 bitrate=N/A speed=7.78x    frame= 5005 fps=187 q=-0.0 size=N/A time=00:03:28.75 bitrate=N/A speed=7.78x    frame= 5103 fps=187 q=-0.0 size=N/A time=00:03:32.83 bitrate=N/A speed=7.78x    frame= 5195 fps=187 q=-0.0 size=N/A time=00:03:36.67 bitrate=N/A speed=7.78x    frame= 5290 fps=186 q=-0.0 size=N/A time=00:03:40.63 bitrate=N/A speed=7.78x    frame= 5395 fps=187 q=-0.0 size=N/A time=00:03:45.01 bitrate=N/A speed=7.79x    frame= 5489 fps=187 q=-0.0 size=N/A time=00:03:48.93 bitrate=N/A speed=7.79x    frame= 5588 fps=187 q=-0.0 size=N/A time=00:03:53.06 bitrate=N/A speed=7.79x    frame= 5684 fps=187 q=-0.0 size=N/A time=00:03:57.07 bitrate=N/A speed=7.79x    frame= 5779 fps=187 q=-0.0 size=N/A time=00:04:01.03 bitrate=N/A speed=7.79x    frame= 5874 fps=187 q=-0.0 size=N/A time=00:04:04.99 bitrate=N/A speed=7.78x    frame= 5970 fps=187 q=-0.0 size=N/A time=00:04:08.99 bitrate=N/A speed=7.79x    frame= 6069 fps=187 q=-0.0 size=N/A time=00:04:13.12 bitrate=N/A speed=7.79x    frame= 6165 fps=187 q=-0.0 size=N/A time=00:04:17.13 bitrate=N/A speed=7.79x    frame= 6264 fps=187 q=-0.0 size=N/A time=00:04:21.26 bitrate=N/A speed=7.79x    frame= 6360 fps=187 q=-0.0 size=N/A time=00:04:25.26 bitrate=N/A speed=7.79x    frame= 6464 fps=187 q=-0.0 size=N/A time=00:04:29.60 bitrate=N/A speed= 7.8x    frame= 6559 fps=187 q=-0.0 size=N/A time=00:04:33.56 bitrate=N/A speed= 7.8x    frame= 6646 fps=187 q=-0.0 size=N/A time=00:04:37.19 bitrate=N/A speed=7.79x    frame= 6760 fps=187 q=-0.0 size=N/A time=00:04:41.94 bitrate=N/A speed=7.81x    frame= 6854 fps=187 q=-0.0 size=N/A time=00:04:45.86 bitrate=N/A speed=7.81x    frame= 6951 fps=187 q=-0.0 size=N/A time=00:04:49.91 bitrate=N/A speed=7.81x    frame= 7047 fps=187 q=-0.0 size=N/A time=00:04:53.91 bitrate=N/A speed=7.81x    frame= 7142 fps=187 q=-0.0 size=N/A time=00:04:57.88 bitrate=N/A speed= 7.8x    frame= 7243 fps=187 q=-0.0 size=N/A time=00:05:02.09 bitrate=N/A speed=7.81x    frame= 7327 fps=187 q=-0.0 size=N/A time=00:05:05.59 bitrate=N/A speed= 7.8x    frame= 7427 fps=187 q=-0.0 size=N/A time=00:05:09.76 bitrate=N/A speed= 7.8x    frame= 7534 fps=187 q=-0.0 size=N/A time=00:05:14.23 bitrate=N/A speed=7.81x    frame= 7624 fps=187 q=-0.0 size=N/A time=00:05:17.98 bitrate=N/A speed= 7.8x    frame= 7722 fps=187 q=-0.0 size=N/A time=00:05:22.07 bitrate=N/A speed=7.81x    frame= 7819 fps=187 q=-0.0 size=N/A time=00:05:26.11 bitrate=N/A speed= 7.8x    frame= 7915 fps=187 q=-0.0 size=N/A time=00:05:30.12 bitrate=N/A speed=7.81x    frame= 8018 fps=187 q=-0.0 size=N/A time=00:05:34.41 bitrate=N/A speed=7.81x    frame= 8124 fps=188 q=-0.0 size=N/A time=00:05:38.83 bitrate=N/A speed=7.82x    frame= 8215 fps=187 q=-0.0 size=N/A time=00:05:42.63 bitrate=N/A speed=7.82x    frame= 8320 fps=188 q=-0.0 size=N/A time=00:05:47.01 bitrate=N/A speed=7.82x    frame= 8418 fps=188 q=-0.0 size=N/A time=00:05:51.10 bitrate=N/A speed=7.82x    frame= 8513 fps=188 q=-0.0 size=N/A time=00:05:55.06 bitrate=N/A speed=7.82x    frame= 8609 fps=188 q=-0.0 size=N/A time=00:05:59.06 bitrate=N/A speed=7.82x    frame= 8706 fps=188 q=-0.0 size=N/A time=00:06:03.11 bitrate=N/A speed=7.82x    frame= 8798 fps=187 q=-0.0 size=N/A time=00:06:06.94 bitrate=N/A speed=7.82x    frame= 8896 fps=188 q=-0.0 size=N/A time=00:06:11.03 bitrate=N/A speed=7.82x    frame= 8989 fps=187 q=-0.0 size=N/A time=00:06:14.91 bitrate=N/A speed=7.82x    frame= 9088 fps=187 q=-0.0 size=N/A time=00:06:19.04 bitrate=N/A speed=7.82x    frame= 9180 fps=187 q=-0.0 size=N/A time=00:06:22.88 bitrate=N/A speed=7.81x    frame= 9281 fps=187 q=-0.0 size=N/A time=00:06:27.09 bitrate=N/A speed=7.82x    frame= 9378 fps=187 q=-0.0 size=N/A time=00:06:31.14 bitrate=N/A speed=7.82x    frame= 9474 fps=187 q=-0.0 size=N/A time=00:06:35.14 bitrate=N/A speed=7.82x    frame= 9576 fps=188 q=-0.0 size=N/A time=00:06:39.39 bitrate=N/A speed=7.82x    frame= 9672 fps=188 q=-0.0 size=N/A time=00:06:43.40 bitrate=N/A speed=7.82x    frame= 9774 fps=188 q=-0.0 size=N/A time=00:06:47.65 bitrate=N/A speed=7.83x    frame= 9869 fps=188 q=-0.0 size=N/A time=00:06:51.61 bitrate=N/A speed=7.82x    frame= 9959 fps=187 q=-0.0 size=N/A time=00:06:55.37 bitrate=N/A speed=7.82x    frame=10058 fps=188 q=-0.0 size=N/A time=00:06:59.50 bitrate=N/A speed=7.82x    frame=10152 fps=187 q=-0.0 size=N/A time=00:07:03.42 bitrate=N/A speed=7.82x    frame=10252 fps=188 q=-0.0 size=N/A time=00:07:07.59 bitrate=N/A speed=7.82x    frame=10353 fps=188 q=-0.0 size=N/A time=00:07:11.80 bitrate=N/A speed=7.83x    frame=10451 fps=188 q=-0.0 size=N/A time=00:07:15.89 bitrate=N/A speed=7.83x    frame=10539 fps=187 q=-0.0 size=N/A time=00:07:19.56 bitrate=N/A speed=7.82x    frame=10641 fps=188 q=-0.0 size=N/A time=00:07:23.81 bitrate=N/A speed=7.82x    frame=10732 fps=187 q=-0.0 size=N/A time=00:07:27.61 bitrate=N/A speed=7.82x    frame=10834 fps=188 q=-0.0 size=N/A time=00:07:31.86 bitrate=N/A speed=7.82x    frame=10921 fps=187 q=-0.0 size=N/A time=00:07:35.49 bitrate=N/A speed=7.82x    frame=11026 fps=188 q=-0.0 size=N/A time=00:07:39.87 bitrate=N/A speed=7.82x    frame=11116 fps=187 q=-0.0 size=N/A time=00:07:43.62 bitrate=N/A speed=7.82x    frame=11220 fps=188 q=-0.0 size=N/A time=00:07:47.96 bitrate=N/A speed=7.82x    frame=11313 fps=188 q=-0.0 size=N/A time=00:07:51.84 bitrate=N/A speed=7.82x    frame=11412 fps=188 q=-0.0 size=N/A time=00:07:55.97 bitrate=N/A speed=7.82x    frame=11513 fps=188 q=-0.0 size=N/A time=00:08:00.18 bitrate=N/A speed=7.82x    frame=11597 fps=187 q=-0.0 size=N/A time=00:08:03.69 bitrate=N/A speed=7.82x    frame=11705 fps=188 q=-0.0 size=N/A time=00:08:08.19 bitrate=N/A speed=7.82x    frame=11801 fps=188 q=-0.0 size=N/A time=00:08:12.20 bitrate=N/A speed=7.82x    frame=11902 fps=188 q=-0.0 size=N/A time=00:08:16.41 bitrate=N/A speed=7.82x    frame=11995 fps=188 q=-0.0 size=N/A time=00:08:20.29 bitrate=N/A speed=7.82x    frame=12095 fps=188 q=-0.0 size=N/A time=00:08:24.46 bitrate=N/A speed=7.83x    frame=12191 fps=188 q=-0.0 size=N/A time=00:08:28.46 bitrate=N/A speed=7.83x    frame=12290 fps=188 q=-0.0 size=N/A time=00:08:32.59 bitrate=N/A speed=7.83x    frame=12377 fps=187 q=-0.0 size=N/A time=00:08:36.22 bitrate=N/A speed=7.82x    frame=12475 fps=188 q=-0.0 size=N/A time=00:08:40.31 bitrate=N/A speed=7.82x    frame=12579 fps=188 q=-0.0 size=N/A time=00:08:44.64 bitrate=N/A speed=7.83x    frame=12674 fps=188 q=-0.0 size=N/A time=00:08:48.61 bitrate=N/A speed=7.82x    frame=12778 fps=188 q=-0.0 size=N/A time=00:08:52.94 bitrate=N/A speed=7.83x    frame=12877 fps=188 q=-0.0 size=N/A time=00:08:57.07 bitrate=N/A speed=7.83x    frame=12965 fps=188 q=-0.0 size=N/A time=00:09:00.74 bitrate=N/A speed=7.83x    frame=13072 fps=188 q=-0.0 size=N/A time=00:09:05.21 bitrate=N/A speed=7.83x    frame=13170 fps=188 q=-0.0 size=N/A time=00:09:09.29 bitrate=N/A speed=7.83x    frame=13269 fps=188 q=-0.0 size=N/A time=00:09:13.42 bitrate=N/A speed=7.83x    frame=13364 fps=188 q=-0.0 size=N/A time=00:09:17.39 bitrate=N/A speed=7.83x    frame=13454 fps=188 q=-0.0 size=N/A time=00:09:21.14 bitrate=N/A speed=7.83x    frame=13559 fps=188 q=-0.0 size=N/A time=00:09:25.52 bitrate=N/A speed=7.83x    frame=13656 fps=188 q=-0.0 size=N/A time=00:09:29.56 bitrate=N/A speed=7.83x    frame=13756 fps=188 q=-0.0 size=N/A time=00:09:33.73 bitrate=N/A speed=7.83x    frame=13853 fps=188 q=-0.0 size=N/A time=00:09:37.78 bitrate=N/A speed=7.83x    frame=13945 fps=188 q=-0.0 size=N/A time=00:09:41.62 bitrate=N/A speed=7.83x    frame=14044 fps=188 q=-0.0 size=N/A time=00:09:45.75 bitrate=N/A speed=7.83x    frame=14146 fps=188 q=-0.0 size=N/A time=00:09:50.00 bitrate=N/A speed=7.84x    frame=14239 fps=188 q=-0.0 size=N/A time=00:09:53.88 bitrate=N/A speed=7.83x    frame=14343 fps=188 q=-0.0 size=N/A time=00:09:58.22 bitrate=N/A speed=7.84x    frame=14440 fps=188 q=-0.0 size=N/A time=00:10:02.26 bitrate=N/A speed=7.84x    frame=14537 fps=188 q=-0.0 size=N/A time=00:10:06.31 bitrate=N/A speed=7.84x    frame=14636 fps=188 q=-0.0 size=N/A time=00:10:10.44 bitrate=N/A speed=7.84x    frame=14735 fps=188 q=-0.0 size=N/A time=00:10:14.57 bitrate=N/A speed=7.84x    frame=14827 fps=188 q=-0.0 size=N/A time=00:10:18.40 bitrate=N/A speed=7.84x    frame=14933 fps=188 q=-0.0 size=N/A time=00:10:22.83 bitrate=N/A speed=7.84x    frame=15033 fps=188 q=-0.0 size=N/A time=00:10:27.00 bitrate=N/A speed=7.84x    frame=15132 fps=188 q=-0.0 size=N/A time=00:10:31.13 bitrate=N/A speed=7.84x    frame=15232 fps=188 q=-0.0 size=N/A time=00:10:35.30 bitrate=N/A speed=7.84x    frame=15323 fps=188 q=-0.0 size=N/A time=00:10:39.09 bitrate=N/A speed=7.84x    frame=15421 fps=188 q=-0.0 size=N/A time=00:10:43.18 bitrate=N/A speed=7.84x    frame=15523 fps=188 q=-0.0 size=N/A time=00:10:47.43 bitrate=N/A speed=7.84x    frame=15616 fps=188 q=-0.0 size=N/A time=00:10:51.31 bitrate=N/A speed=7.84x    frame=15719 fps=188 q=-0.0 size=N/A time=00:10:55.61 bitrate=N/A speed=7.85x    frame=15811 fps=188 q=-0.0 size=N/A time=00:10:59.45 bitrate=N/A speed=7.84x    frame=15916 fps=188 q=-0.0 size=N/A time=00:11:03.82 bitrate=N/A speed=7.85x    frame=16016 fps=188 q=-0.0 size=N/A time=00:11:08.00 bitrate=N/A speed=7.85x    frame=16113 fps=188 q=-0.0 size=N/A time=00:11:12.04 bitrate=N/A speed=7.85x    frame=16212 fps=188 q=-0.0 size=N/A time=00:11:16.17 bitrate=N/A speed=7.85x    frame=16310 fps=188 q=-0.0 size=N/A time=00:11:20.26 bitrate=N/A speed=7.85x    frame=16406 fps=188 q=-0.0 size=N/A time=00:11:24.26 bitrate=N/A speed=7.85x    frame=16504 fps=188 q=-0.0 size=N/A time=00:11:28.35 bitrate=N/A speed=7.85x    frame=16601 fps=188 q=-0.0 size=N/A time=00:11:32.40 bitrate=N/A speed=7.85x    frame=16700 fps=188 q=-0.0 size=N/A time=00:11:36.52 bitrate=N/A speed=7.85x    frame=16807 fps=188 q=-0.0 size=N/A time=00:11:40.99 bitrate=N/A speed=7.86x    frame=16901 fps=188 q=-0.0 size=N/A time=00:11:44.91 bitrate=N/A speed=7.86x    frame=16991 fps=188 q=-0.0 size=N/A time=00:11:48.66 bitrate=N/A speed=7.85x    frame=17101 fps=188 q=-0.0 size=N/A time=00:11:53.25 bitrate=N/A speed=7.86x    frame=17196 fps=188 q=-0.0 size=N/A time=00:11:57.21 bitrate=N/A speed=7.86x    frame=17297 fps=188 q=-0.0 size=N/A time=00:12:01.42 bitrate=N/A speed=7.86x    frame=17391 fps=188 q=-0.0 size=N/A time=00:12:05.34 bitrate=N/A speed=7.86x    frame=17485 fps=188 q=-0.0 size=N/A time=00:12:09.27 bitrate=N/A speed=7.86x    frame=17587 fps=188 q=-0.0 size=N/A time=00:12:13.52 bitrate=N/A speed=7.86x    frame=17686 fps=188 q=-0.0 size=N/A time=00:12:17.65 bitrate=N/A speed=7.86x    frame=17782 fps=188 q=-0.0 size=N/A time=00:12:21.65 bitrate=N/A speed=7.86x    frame=17880 fps=188 q=-0.0 size=N/A time=00:12:25.74 bitrate=N/A speed=7.86x    frame=17977 fps=188 q=-0.0 size=N/A time=00:12:29.79 bitrate=N/A speed=7.86x    frame=18074 fps=188 q=-0.0 size=N/A time=00:12:33.83 bitrate=N/A speed=7.86x    frame=18173 fps=188 q=-0.0 size=N/A time=00:12:37.96 bitrate=N/A speed=7.86x    frame=18263 fps=188 q=-0.0 size=N/A time=00:12:41.71 bitrate=N/A speed=7.86x    frame=18360 fps=188 q=-0.0 size=N/A time=00:12:45.76 bitrate=N/A speed=7.86x    frame=18459 fps=188 q=-0.0 size=N/A time=00:12:49.89 bitrate=N/A speed=7.86x    frame=18545 fps=188 q=-0.0 size=N/A time=00:12:53.48 bitrate=N/A speed=7.85x    frame=18653 fps=188 q=-0.0 size=N/A time=00:12:57.98 bitrate=N/A speed=7.86x    frame=18749 fps=188 q=-0.0 size=N/A time=00:13:01.98 bitrate=N/A speed=7.86x    frame=18847 fps=188 q=-0.0 size=N/A time=00:13:06.07 bitrate=N/A speed=7.86x    frame=18935 fps=188 q=-0.0 size=N/A time=00:13:09.74 bitrate=N/A speed=7.85x    frame=19041 fps=188 q=-0.0 size=N/A time=00:13:14.16 bitrate=N/A speed=7.86x    frame=19139 fps=188 q=-0.0 size=N/A time=00:13:18.25 bitrate=N/A speed=7.86x    frame=19230 fps=188 q=-0.0 size=N/A time=00:13:22.05 bitrate=N/A speed=7.85x    frame=19339 fps=188 q=-0.0 size=N/A time=00:13:26.59 bitrate=N/A speed=7.86x    frame=19437 fps=188 q=-0.0 size=N/A time=00:13:30.68 bitrate=N/A speed=7.86x    frame=19533 fps=188 q=-0.0 size=N/A time=00:13:34.68 bitrate=N/A speed=7.86x    frame=19627 fps=188 q=-0.0 size=N/A time=00:13:38.60 bitrate=N/A speed=7.86x    frame=19720 fps=188 q=-0.0 size=N/A time=00:13:42.48 bitrate=N/A speed=7.85x    frame=19814 fps=188 q=-0.0 size=N/A time=00:13:46.40 bitrate=N/A speed=7.85x    frame=19904 fps=188 q=-0.0 size=N/A time=00:13:50.16 bitrate=N/A speed=7.85x    frame=20004 fps=188 q=-0.0 size=N/A time=00:13:54.33 bitrate=N/A speed=7.85x    frame=20097 fps=188 q=-0.0 size=N/A time=00:13:58.21 bitrate=N/A speed=7.85x    frame=20196 fps=188 q=-0.0 size=N/A time=00:14:02.34 bitrate=N/A speed=7.85x    frame=20291 fps=188 q=-0.0 size=N/A time=00:14:06.30 bitrate=N/A speed=7.85x    frame=20387 fps=188 q=-0.0 size=N/A time=00:14:10.30 bitrate=N/A speed=7.85x    frame=20487 fps=188 q=-0.0 size=N/A time=00:14:14.47 bitrate=N/A speed=7.85x    frame=20584 fps=188 q=-0.0 size=N/A time=00:14:18.52 bitrate=N/A speed=7.85x    frame=20678 fps=188 q=-0.0 size=N/A time=00:14:22.44 bitrate=N/A speed=7.85x    frame=20772 fps=188 q=-0.0 size=N/A time=00:14:26.36 bitrate=N/A speed=7.85x    frame=20863 fps=188 q=-0.0 size=N/A time=00:14:30.16 bitrate=N/A speed=7.85x    frame=20968 fps=188 q=-0.0 size=N/A time=00:14:34.54 bitrate=N/A speed=7.85x    frame=21065 fps=188 q=-0.0 size=N/A time=00:14:38.58 bitrate=N/A speed=7.85x    frame=21164 fps=188 q=-0.0 size=N/A time=00:14:42.71 bitrate=N/A speed=7.85x    frame=21261 fps=188 q=-0.0 size=N/A time=00:14:46.76 bitrate=N/A speed=7.85x    frame=21353 fps=188 q=-0.0 size=N/A time=00:14:50.59 bitrate=N/A speed=7.85x    frame=21452 fps=188 q=-0.0 size=N/A time=00:14:54.72 bitrate=N/A speed=7.85x    frame=21547 fps=188 q=-0.0 size=N/A time=00:14:58.68 bitrate=N/A speed=7.85x    frame=21635 fps=188 q=-0.0 size=N/A time=00:15:02.35 bitrate=N/A speed=7.84x    frame=21737 fps=188 q=-0.0 size=N/A time=00:15:06.61 bitrate=N/A speed=7.85x    frame=21833 fps=188 q=-0.0 size=N/A time=00:15:10.61 bitrate=N/A speed=7.85x    frame=21926 fps=188 q=-0.0 size=N/A time=00:15:14.49 bitrate=N/A speed=7.84x    frame=22025 fps=188 q=-0.0 size=N/A time=00:15:18.62 bitrate=N/A speed=7.85x    frame=22124 fps=188 q=-0.0 size=N/A time=00:15:22.75 bitrate=N/A speed=7.85x    frame=22216 fps=188 q=-0.0 size=N/A time=00:15:26.59 bitrate=N/A speed=7.84x    frame=22316 fps=188 q=-0.0 size=N/A time=00:15:30.76 bitrate=N/A speed=7.84x    frame=22416 fps=188 q=-0.0 size=N/A time=00:15:34.93 bitrate=N/A speed=7.85x    frame=22511 fps=188 q=-0.0 size=N/A time=00:15:38.89 bitrate=N/A speed=7.84x    frame=22610 fps=188 q=-0.0 size=N/A time=00:15:43.02 bitrate=N/A speed=7.85x    frame=22709 fps=188 q=-0.0 size=N/A time=00:15:47.15 bitrate=N/A speed=7.85x    frame=22807 fps=188 q=-0.0 size=N/A time=00:15:51.24 bitrate=N/A speed=7.85x    frame=22905 fps=188 q=-0.0 size=N/A time=00:15:55.32 bitrate=N/A speed=7.85x    frame=23003 fps=188 q=-0.0 size=N/A time=00:15:59.41 bitrate=N/A speed=7.85x    frame=23100 fps=188 q=-0.0 size=N/A time=00:16:03.46 bitrate=N/A speed=7.85x    frame=23189 fps=188 q=-0.0 size=N/A time=00:16:07.17 bitrate=N/A speed=7.84x    frame=23292 fps=188 q=-0.0 size=N/A time=00:16:11.47 bitrate=N/A speed=7.85x    frame=23388 fps=188 q=-0.0 size=N/A time=00:16:15.47 bitrate=N/A speed=7.85x    frame=23488 fps=188 q=-0.0 size=N/A time=00:16:19.64 bitrate=N/A speed=7.85x    frame=23582 fps=188 q=-0.0 size=N/A time=00:16:23.56 bitrate=N/A speed=7.85x    frame=23678 fps=188 q=-0.0 size=N/A time=00:16:27.56 bitrate=N/A speed=7.85x    frame=23774 fps=188 q=-0.0 size=N/A time=00:16:31.57 bitrate=N/A speed=7.85x    frame=23863 fps=188 q=-0.0 size=N/A time=00:16:35.28 bitrate=N/A speed=7.84x    frame=23962 fps=188 q=-0.0 size=N/A time=00:16:39.41 bitrate=N/A speed=7.84x    frame=24058 fps=188 q=-0.0 size=N/A time=00:16:43.41 bitrate=N/A speed=7.84x    frame=24162 fps=188 q=-0.0 size=N/A time=00:16:47.75 bitrate=N/A speed=7.85x    frame=24247 fps=188 q=-0.0 size=N/A time=00:16:51.30 bitrate=N/A speed=7.84x    frame=24352 fps=188 q=-0.0 size=N/A time=00:16:55.68 bitrate=N/A speed=7.84x    frame=24447 fps=188 q=-0.0 size=N/A time=00:16:59.64 bitrate=N/A speed=7.84x    frame=24544 fps=188 q=-0.0 size=N/A time=00:17:03.68 bitrate=N/A speed=7.84x    frame=24635 fps=188 q=-0.0 size=N/A time=00:17:07.48 bitrate=N/A speed=7.84x    frame=24739 fps=188 q=-0.0 size=N/A time=00:17:11.82 bitrate=N/A speed=7.84x    frame=24833 fps=188 q=-0.0 size=N/A time=00:17:15.74 bitrate=N/A speed=7.84x    frame=24932 fps=188 q=-0.0 size=N/A time=00:17:19.87 bitrate=N/A speed=7.84x    frame=25035 fps=188 q=-0.0 size=N/A time=00:17:24.16 bitrate=N/A speed=7.85x    frame=25136 fps=188 q=-0.0 size=N/A time=00:17:28.38 bitrate=N/A speed=7.85x    frame=25230 fps=188 q=-0.0 size=N/A time=00:17:32.30 bitrate=N/A speed=7.85x    frame=25324 fps=188 q=-0.0 size=N/A time=00:17:36.22 bitrate=N/A speed=7.85x    frame=25418 fps=188 q=-0.0 size=N/A time=00:17:40.14 bitrate=N/A speed=7.84x    frame=25522 fps=188 q=-0.0 size=N/A time=00:17:44.48 bitrate=N/A speed=7.85x    frame=25623 fps=188 q=-0.0 size=N/A time=00:17:48.69 bitrate=N/A speed=7.85x    frame=25719 fps=188 q=-0.0 size=N/A time=00:17:52.69 bitrate=N/A speed=7.85x    frame=25817 fps=188 q=-0.0 size=N/A time=00:17:56.78 bitrate=N/A speed=7.85x    frame=25909 fps=188 q=-0.0 size=N/A time=00:18:00.62 bitrate=N/A speed=7.85x    frame=26008 fps=188 q=-0.0 size=N/A time=00:18:04.75 bitrate=N/A speed=7.85x    frame=26103 fps=188 q=-0.0 size=N/A time=00:18:08.71 bitrate=N/A speed=7.85x    frame=26200 fps=188 q=-0.0 size=N/A time=00:18:12.75 bitrate=N/A speed=7.85x    frame=26286 fps=188 q=-0.0 size=N/A time=00:18:16.34 bitrate=N/A speed=7.84x    frame=26393 fps=188 q=-0.0 size=N/A time=00:18:20.80 bitrate=N/A speed=7.85x    frame=26491 fps=188 q=-0.0 size=N/A time=00:18:24.89 bitrate=N/A speed=7.85x    frame=26581 fps=188 q=-0.0 size=N/A time=00:18:28.64 bitrate=N/A speed=7.84x    frame=26685 fps=188 q=-0.0 size=N/A time=00:18:32.98 bitrate=N/A speed=7.85x    frame=26778 fps=188 q=-0.0 size=N/A time=00:18:36.86 bitrate=N/A speed=7.84x    frame=26874 fps=188 q=-0.0 size=N/A time=00:18:40.86 bitrate=N/A speed=7.84x    frame=26967 fps=188 q=-0.0 size=N/A time=00:18:44.74 bitrate=N/A speed=7.84x    frame=27064 fps=188 q=-0.0 size=N/A time=00:18:48.79 bitrate=N/A speed=7.84x    frame=27152 fps=188 q=-0.0 size=N/A time=00:18:52.46 bitrate=N/A speed=7.84x    frame=27249 fps=188 q=-0.0 size=N/A time=00:18:56.51 bitrate=N/A speed=7.84x    frame=27357 fps=188 q=-0.0 size=N/A time=00:19:01.01 bitrate=N/A speed=7.84x    frame=27452 fps=188 q=-0.0 size=N/A time=00:19:04.97 bitrate=N/A speed=7.84x    frame=27548 fps=188 q=-0.0 size=N/A time=00:19:08.98 bitrate=N/A speed=7.84x    frame=27639 fps=188 q=-0.0 size=N/A time=00:19:12.77 bitrate=N/A speed=7.84x    frame=27738 fps=188 q=-0.0 size=N/A time=00:19:16.90 bitrate=N/A speed=7.84x    frame=27834 fps=188 q=-0.0 size=N/A time=00:19:20.90 bitrate=N/A speed=7.84x    frame=27915 fps=188 q=-0.0 size=N/A time=00:19:24.28 bitrate=N/A speed=7.84x    frame=28025 fps=188 q=-0.0 size=N/A time=00:19:28.87 bitrate=N/A speed=7.84x    frame=28121 fps=188 q=-0.0 size=N/A time=00:19:32.88 bitrate=N/A speed=7.84x    frame=28218 fps=188 q=-0.0 size=N/A time=00:19:36.92 bitrate=N/A speed=7.84x    frame=28308 fps=188 q=-0.0 size=N/A time=00:19:40.67 bitrate=N/A speed=7.84x    frame=28408 fps=188 q=-0.0 size=N/A time=00:19:44.85 bitrate=N/A speed=7.84x    frame=28501 fps=188 q=-0.0 size=N/A time=00:19:48.72 bitrate=N/A speed=7.84x    frame=28597 fps=188 q=-0.0 size=N/A time=00:19:52.73 bitrate=N/A speed=7.84x    frame=28689 fps=188 q=-0.0 size=N/A time=00:19:56.57 bitrate=N/A speed=7.84x    frame=28787 fps=188 q=-0.0 size=N/A time=00:20:00.65 bitrate=N/A speed=7.84x    frame=28880 fps=188 q=-0.0 size=N/A time=00:20:04.53 bitrate=N/A speed=7.84x    frame=28977 fps=188 q=-0.0 size=N/A time=00:20:08.58 bitrate=N/A speed=7.84x    frame=29074 fps=188 q=-0.0 size=N/A time=00:20:12.62 bitrate=N/A speed=7.84x    frame=29158 fps=188 q=-0.0 size=N/A time=00:20:16.13 bitrate=N/A speed=7.83x    frame=29266 fps=188 q=-0.0 size=N/A time=00:20:20.63 bitrate=N/A speed=7.83x    frame=29362 fps=188 q=-0.0 size=N/A time=00:20:24.64 bitrate=N/A speed=7.83x    frame=29457 fps=188 q=-0.0 size=N/A time=00:20:28.60 bitrate=N/A speed=7.83x    frame=29557 fps=188 q=-0.0 size=N/A time=00:20:32.77 bitrate=N/A speed=7.84x    frame=29654 fps=188 q=-0.0 size=N/A time=00:20:36.81 bitrate=N/A speed=7.84x    frame=29756 fps=188 q=-0.0 size=N/A time=00:20:41.07 bitrate=N/A speed=7.84x    frame=29841 fps=188 q=-0.0 size=N/A time=00:20:44.61 bitrate=N/A speed=7.83x    frame=29932 fps=188 q=-0.0 size=N/A time=00:20:48.41 bitrate=N/A speed=7.83x    frame=30045 fps=188 q=-0.0 size=N/A time=00:20:53.12 bitrate=N/A speed=7.84x    frame=30140 fps=188 q=-0.0 size=N/A time=00:20:57.08 bitrate=N/A speed=7.84x    frame=30233 fps=188 q=-0.0 size=N/A time=00:21:00.96 bitrate=N/A speed=7.83x    frame=30323 fps=188 q=-0.0 size=N/A time=00:21:04.72 bitrate=N/A speed=7.83x    frame=30426 fps=188 q=-0.0 size=N/A time=00:21:09.01 bitrate=N/A speed=7.83x    frame=30523 fps=188 q=-0.0 size=N/A time=00:21:13.06 bitrate=N/A speed=7.83x    frame=30622 fps=188 q=-0.0 size=N/A time=00:21:17.19 bitrate=N/A speed=7.83x    frame=30716 fps=188 q=-0.0 size=N/A time=00:21:21.11 bitrate=N/A speed=7.83x    frame=30813 fps=188 q=-0.0 size=N/A time=00:21:25.15 bitrate=N/A speed=7.83x    frame=30905 fps=188 q=-0.0 size=N/A time=00:21:28.99 bitrate=N/A speed=7.83x    frame=31006 fps=188 q=-0.0 size=N/A time=00:21:33.20 bitrate=N/A speed=7.83x    frame=31103 fps=188 q=-0.0 size=N/A time=00:21:37.25 bitrate=N/A speed=7.83x    frame=31201 fps=188 q=-0.0 size=N/A time=00:21:41.34 bitrate=N/A speed=7.83x    frame=31300 fps=188 q=-0.0 size=N/A time=00:21:45.47 bitrate=N/A speed=7.83x    frame=31383 fps=188 q=-0.0 size=N/A time=00:21:48.93 bitrate=N/A speed=7.83x    frame=31482 fps=188 q=-0.0 size=N/A time=00:21:53.06 bitrate=N/A speed=7.83x    frame=31585 fps=188 q=-0.0 size=N/A time=00:21:57.35 bitrate=N/A speed=7.83x    frame=31682 fps=188 q=-0.0 size=N/A time=00:22:01.40 bitrate=N/A speed=7.83x    frame=31789 fps=188 q=-0.0 size=N/A time=00:22:05.86 bitrate=N/A speed=7.84x    frame=31877 fps=188 q=-0.0 size=N/A time=00:22:09.53 bitrate=N/A speed=7.83x    frame=31984 fps=188 q=-0.0 size=N/A time=00:22:13.99 bitrate=N/A speed=7.84x    frame=32080 fps=188 q=-0.0 size=N/A time=00:22:18.00 bitrate=N/A speed=7.84x    frame=32176 fps=188 q=-0.0 size=N/A time=00:22:22.00 bitrate=N/A speed=7.84x    frame=32266 fps=188 q=-0.0 size=N/A time=00:22:25.76 bitrate=N/A speed=7.83x    frame=32371 fps=188 q=-0.0 size=N/A time=00:22:30.14 bitrate=N/A speed=7.84x    frame=32466 fps=188 q=-0.0 size=N/A time=00:22:34.10 bitrate=N/A speed=7.84x    frame=32564 fps=188 q=-0.0 size=N/A time=00:22:38.19 bitrate=N/A speed=7.84x    frame=32659 fps=188 q=-0.0 size=N/A time=00:22:42.15 bitrate=N/A speed=7.84x    frame=32753 fps=188 q=-0.0 size=N/A time=00:22:46.07 bitrate=N/A speed=7.83x    frame=32850 fps=188 q=-0.0 size=N/A time=00:22:50.11 bitrate=N/A speed=7.84x    frame=32954 fps=188 q=-0.0 size=N/A time=00:22:54.45 bitrate=N/A speed=7.84x    frame=33049 fps=188 q=-0.0 size=N/A time=00:22:58.41 bitrate=N/A speed=7.84x    frame=33149 fps=188 q=-0.0 size=N/A time=00:23:02.58 bitrate=N/A speed=7.84x    frame=33245 fps=188 q=-0.0 size=N/A time=00:23:06.59 bitrate=N/A speed=7.84x    frame=33342 fps=188 q=-0.0 size=N/A time=00:23:10.63 bitrate=N/A speed=7.84x    frame=33440 fps=188 q=-0.0 size=N/A time=00:23:14.72 bitrate=N/A speed=7.84x    frame=33540 fps=188 q=-0.0 size=N/A time=00:23:18.89 bitrate=N/A speed=7.84x    frame=33635 fps=188 q=-0.0 size=N/A time=00:23:22.85 bitrate=N/A speed=7.84x    frame=33734 fps=188 q=-0.0 size=N/A time=00:23:26.98 bitrate=N/A speed=7.84x    frame=33830 fps=188 q=-0.0 size=N/A time=00:23:30.99 bitrate=N/A speed=7.84x    frame=33922 fps=188 q=-0.0 size=N/A time=00:23:34.83 bitrate=N/A speed=7.84x    frame=34034 fps=188 q=-0.0 size=N/A time=00:23:39.50 bitrate=N/A speed=7.84x    [Parsed_ssim_10 @ 000002d5994ab080] SSIM Y:0.993392 (21.799333) U:0.994832 (22.866864) V:0.994610 (22.683919) All:0.993835 (22.100677)
[out#0/null @ 000002d596aec100] video:14630KiB audio:266276KiB subtitle:0KiB other streams:0KiB global headers:0KiB muxing overhead: unknown
frame=34048 fps=188 q=-0.0 Lsize=N/A time=00:23:40.08 bitrate=N/A speed=7.84x    
